PathFileType	4	(X/Y/Z)	C:\Git\research_data\torsion_deformities_healthy_kinematics\simulations\P03\pre\Static01\marker_experimental_HJC.trc
DataRate	CameraRate	NumFrames	NumMarkers	Units	OrigDataRate	OrigDataStartFrame	OrigNumFrames
150	150	5	38	mm	150	76	150
Frame#	Time	C7			T10			CLAV			STRN			RBAK			SACR			LASI			RASI			LT1			LT2			LT3			LS1			LS2			LS3			LHEE			LTOE			RT1			RT2			RT3			RS1			RS2			RS3			RHEE			RTOE			LKNE			LKNM			LANK			LANM			RKNM			RKNE			RANM			RANK			LKJC			RKJC			LAJC			RAJC			LHJC			RHJC		
		X1	Y1	Z1	X2	Y2	Z2	X3	Y3	Z3	X4	Y4	Z4	X5	Y5	Z5	X6	Y6	Z6	X7	Y7	Z7	X8	Y8	Z8	X9	Y9	Z9	X10	Y10	Z10	X11	Y11	Z11	X12	Y12	Z12	X13	Y13	Z13	X14	Y14	Z14	X15	Y15	Z15	X16	Y16	Z16	X17	Y17	Z17	X18	Y18	Z18	X19	Y19	Z19	X20	Y20	Z20	X21	Y21	Z21	X22	Y22	Z22	X23	Y23	Z23	X24	Y24	Z24	X25	Y25	Z25	X26	Y26	Z26	X27	Y27	Z27	X28	Y28	Z28	X29	Y29	Z29	X30	Y30	Z30	X31	Y31	Z31	X32	Y32	Z32	X33	Y33	Z33	X34	Y34	Z34	X35	Y35	Z35	X36	Y36	Z36	X37	Y37	Z37	X38	Y38	Z38	

76	0.500000	-966.152649	1274.560425	-445.405823	-914.633667	1095.883789	-446.695068	-1096.443481	1211.496460	-429.594238	-1128.293091	1158.165771	-425.148926	-934.422607	1178.144531	-544.152405	-914.485474	875.414246	-430.967316	-1070.682129	870.772034	-279.666473	-1122.073486	877.999695	-522.677795	-1126.661987	586.511230	-243.794830	-1078.057861	474.735352	-231.620331	-1201.816772	532.131165	-276.536682	-1032.361938	217.475296	-283.083130	-950.117920	148.493851	-343.014618	-1061.423950	132.134857	-254.440689	-973.723206	41.733814	-368.048798	-1083.071777	41.307251	-262.222778	-1131.628418	607.208801	-593.606750	-1055.508301	508.670746	-586.993835	-1197.091675	534.433044	-583.833923	-1089.093506	266.449158	-587.731262	-981.677979	216.850983	-562.608643	-1116.880615	176.198273	-582.743652	-981.769714	44.932205	-500.205780	-1123.321045	41.737534	-570.523499	-1146.632202	433.053406	-268.023071	-1163.332886	421.864441	-367.441071	-994.118103	49.706333	-304.870972	-1044.861694	47.441051	-356.950592	-1164.937012	424.383911	-466.984833	-1164.745483	439.785797	-569.667114	-1062.658325	52.850506	-490.700317	-1019.023438	47.564522	-552.316223	-1154.982544	427.458923	-317.732056	-1164.841309	432.084869	-518.325989	-1019.489868	48.573692	-330.910767	-1040.840820	50.207516	-521.508301	-1024.878161	786.753911	-327.583278	-1061.815937	791.948826	-502.248790	
77	0.506667	-966.175110	1274.518066	-445.482178	-914.634644	1095.829956	-446.704895	-1096.462891	1211.421143	-429.664368	-1128.295898	1158.108887	-425.184662	-934.485779	1178.060791	-544.248596	-914.459656	875.356995	-430.880066	-1070.744507	870.775513	-279.674835	-1121.980957	877.875916	-522.728394	-1126.652222	586.523621	-243.664688	-1077.998779	474.751221	-231.515030	-1201.815186	532.120178	-276.381409	-1032.330933	217.472748	-283.034607	-950.118896	148.516464	-343.025879	-1061.351440	132.125076	-254.380096	-973.726624	41.741940	-368.043640	-1083.037964	41.298454	-262.176147	-1131.641602	607.096497	-593.661865	-1055.599854	508.491333	-587.022583	-1197.162598	534.381592	-583.907227	-1089.201538	266.393463	-587.760437	-981.789673	216.837982	-562.657349	-1116.950928	176.134659	-582.771729	-981.777588	44.938187	-500.193512	-1123.319458	41.740032	-570.527832	-1146.501831	433.015442	-267.926086	-1163.372192	421.854095	-367.280701	-994.103027	49.689777	-304.856445	-1044.852417	47.467064	-356.922058	-1165.165527	424.312378	-467.079620	-1164.907349	439.718781	-569.732300	-1062.681030	52.848980	-490.700104	-1019.039368	47.566940	-552.315063	-1154.937012	427.434784	-317.603394	-1165.036499	432.015564	-518.405945	-1019.477722	48.578419	-330.889252	-1040.860229	50.207962	-521.507568	-1024.903519	786.736102	-327.520351	-1061.729886	791.839540	-502.215895	
78	0.513333	-966.193176	1274.473022	-445.556183	-914.636353	1095.772217	-446.717773	-1096.485596	1211.340454	-429.734467	-1128.299072	1158.043457	-425.219391	-934.531372	1177.968750	-544.333496	-914.421570	875.299866	-430.776733	-1070.817627	870.784180	-279.682587	-1121.886230	877.742981	-522.784180	-1126.650757	586.539185	-243.529449	-1077.924072	474.770477	-231.416077	-1201.815796	532.109375	-276.224152	-1032.303589	217.464066	-282.966156	-950.107910	148.537109	-343.005554	-1061.291260	132.108994	-254.315872	-973.725098	41.750866	-368.031097	-1083.001465	41.288055	-262.127533	-1131.660034	606.984802	-593.715454	-1055.702759	508.308472	-587.060730	-1197.244019	534.329041	-583.979309	-1089.314209	266.336121	-587.791748	-981.896362	216.835281	-562.701599	-1117.025879	176.068115	-582.800415	-981.785645	44.945118	-500.181519	-1123.317627	41.743114	-570.533691	-1146.457275	433.028900	-267.794495	-1163.391724	421.857147	-367.134583	-994.083130	49.671886	-304.834229	-1044.835083	47.494228	-356.886108	-1165.401123	424.239319	-467.185242	-1165.087891	439.646088	-569.795227	-1062.704834	52.847046	-490.703186	-1019.056946	47.568600	-552.315125	-1154.924561	427.443024	-317.464539	-1165.244507	431.942688	-518.490234	-1019.459106	48.583057	-330.860168	-1040.880859	50.207825	-521.509155	-1024.932123	786.721086	-327.450753	-1061.637748	791.722734	-502.180338	
79	0.520000	-966.211670	1274.425293	-445.629700	-914.638916	1095.712402	-446.734894	-1096.512451	1211.252075	-429.803986	-1128.305786	1157.963623	-425.256439	-934.566101	1177.871338	-544.407593	-914.371033	875.243225	-430.659302	-1070.899414	870.796265	-279.689514	-1121.789551	877.604797	-522.843750	-1126.660278	586.556335	-243.393829	-1077.836182	474.790436	-231.322464	-1201.821167	532.099854	-276.068634	-1032.281616	217.450012	-282.879364	-950.084595	148.556854	-342.956940	-1061.245239	132.085846	-254.250229	-973.719727	41.760273	-368.013092	-1082.964478	41.272625	-262.080444	-1131.680420	606.876221	-593.765381	-1055.808838	508.128143	-587.102478	-1197.327271	534.276062	-584.046326	-1089.427368	266.279480	-587.824158	-981.992798	216.841354	-562.738892	-1117.101318	176.000381	-582.829346	-981.793457	44.952610	-500.170166	-1123.315674	41.746342	-570.541138	-1146.474243	433.067535	-267.635254	-1163.394775	421.873199	-367.006073	-994.057495	49.656097	-304.802399	-1044.811035	47.521797	-356.844452	-1165.628296	424.167023	-467.288055	-1165.275635	439.569489	-569.856018	-1062.726685	52.844498	-490.708374	-1019.074707	47.569221	-552.316589	-1154.934570	427.470367	-317.320679	-1165.452026	431.868256	-518.572021	-1019.434204	48.588947	-330.823425	-1040.900757	50.206860	-521.512512	-1024.963087	786.707931	-327.376459	-1061.540310	791.601555	-502.143265	
80	0.526667	-966.236450	1274.375000	-445.704865	-914.643494	1095.651733	-446.756104	-1096.545166	1211.154419	-429.873718	-1128.321045	1157.866211	-425.298096	-934.598450	1177.772339	-544.473633	-914.311707	875.185242	-430.531158	-1070.985107	870.809326	-279.694824	-1121.691772	877.466248	-522.904419	-1126.681274	586.572571	-243.261414	-1077.746460	474.807678	-231.225983	-1201.834229	532.092407	-275.919373	-1032.266113	217.432343	-282.777924	-950.051636	148.576981	-342.887665	-1061.214233	132.055466	-254.184906	-973.711853	41.769611	-367.990936	-1082.929199	41.250687	-262.036133	-1131.698608	606.772827	-593.809143	-1055.909058	507.956726	-587.140442	-1197.405884	534.223877	-584.105957	-1089.537476	266.225922	-587.856628	-982.076782	216.852081	-562.769104	-1117.172607	175.933548	-582.857849	-981.800659	44.960106	-500.159973	-1123.313843	41.749203	-570.550110	-1146.500244	433.090179	-267.475494	-1163.387939	421.895142	-366.892792	-994.026917	49.643997	-304.759888	-1044.783203	47.548920	-356.799286	-1165.834717	424.096527	-467.376007	-1165.457886	439.492004	-569.915344	-1062.744507	52.841373	-490.714325	-1019.090881	47.568741	-552.319031	-1154.944092	427.492645	-317.184143	-1165.646362	431.794250	-518.645691	-1019.405029	48.596458	-330.779572	-1040.917603	50.205055	-521.516663	-1024.995678	786.694586	-327.299624	-1061.440880	791.479221	-502.105496	
